{
	"asset":{
		"version":"2.0",
		"generator":"Created using the official Cinema 4D glTF Exporter 1.000x290161"
	},
	"scenes":[{
		"nodes":[0]
	}],
	"nodes":[{
		"name":"ART.Vert 16x9",
		"translation":[0.0,
		0.0,
		0.0],
		"rotation":[0.0,
		0.0,
		0.7071067690849304,
		-0.7071067690849304],
		"scale":[1.0,
		1.0,
		1.0],
		"children":[1,
		2,
		3,
		4]
	},
	{
		"name":"Window_GoldDrip.Bot",
		"translation":[60.3021354675293,
		-102.64471435546875,
		2.9532949924468996],
		"rotation":[0.0,
		0.0,
		0.7071067690849304,
		0.7071067690849304],
		"scale":[1.0,
		1.0,
		1.0],
		"mesh":0
	},
	{
		"name":"Window_GoldDrip.Top",
		"translation":[-36.647647857666019,
		-99.46875762939453,
		2.487301826477051],
		"rotation":[0.0,
		0.0,
		0.7071067690849304,
		0.7071067690849304],
		"scale":[1.0,
		1.0,
		1.0],
		"mesh":1
	},
	{
		"name":"Rectangles_V",
		"translation":[-2.3677821159362795,
		34.65091323852539,
		4.233727931976318],
		"rotation":[0.0,
		0.0,
		0.7071067690849304,
		0.7071067690849304],
		"scale":[1.0,
		1.0,
		1.0],
		"mesh":2
	},
	{
		"name":"Rectangles_H",
		"translation":[-2.3677821159362795,
		34.65091323852539,
		4.233727931976318],
		"rotation":[0.0,
		0.0,
		0.7071067690849304,
		0.7071067690849304],
		"scale":[1.0,
		1.0,
		1.0],
		"mesh":3
	}],
	"meshes":[{
		"primitives":[{
			"attributes":{
				"POSITION":1,
				"NORMAL":2,
				"TEXCOORD_0":3
			},
			"indices":0,
			"material":0
		}]
	},
	{
		"primitives":[{
			"attributes":{
				"POSITION":5,
				"NORMAL":6,
				"TEXCOORD_0":7
			},
			"indices":4,
			"material":0
		}]
	},
	{
		"primitives":[{
			"attributes":{
				"POSITION":9,
				"NORMAL":10,
				"TEXCOORD_0":11
			},
			"indices":8,
			"material":1
		}]
	},
	{
		"primitives":[{
			"attributes":{
				"POSITION":13,
				"NORMAL":14,
				"TEXCOORD_0":15
			},
			"indices":12,
			"material":1
		}]
	}],
	"accessors":[{
		"bufferView":0,
		"max":[1771],
		"type":"SCALAR",
		"componentType":5123,
		"count":7530,
		"byteOffset":0,
		"min":[0]
	},
	{
		"bufferView":1,
		"max":[11.501179695129395,
		130.8040313720703,
		10.128138542175293],
		"type":"VEC3",
		"componentType":5126,
		"count":1772,
		"byteOffset":0,
		"min":[-11.791839599609375,
		-5.038027763366699,
		-10.128138542175293]
	},
	{
		"bufferView":1,
		"max":[0.9985392689704895,
		0.9999014735221863,
		0.9999428391456604],
		"type":"VEC3",
		"componentType":5126,
		"count":1772,
		"byteOffset":12,
		"min":[-0.9970881938934326,
		-0.9981962442398071,
		-0.9998915195465088]
	},
	{
		"bufferView":1,
		"max":[0.9843529462814331,
		0.9697766304016113],
		"type":"VEC2",
		"componentType":5126,
		"count":1772,
		"byteOffset":24,
		"min":[0.0,
		0.0]
	},
	{
		"bufferView":2,
		"max":[1856],
		"type":"SCALAR",
		"componentType":5123,
		"count":7470,
		"byteOffset":0,
		"min":[0]
	},
	{
		"bufferView":3,
		"max":[11.791839599609375,
		30.694561004638673,
		6.5603437423706059],
		"type":"VEC3",
		"componentType":5126,
		"count":1857,
		"byteOffset":0,
		"min":[-8.604659080505371,
		-23.129413604736329,
		-9.230999946594239]
	},
	{
		"bufferView":3,
		"max":[0.9995687007904053,
		0.9999732971191406,
		0.999848484992981],
		"type":"VEC3",
		"componentType":5126,
		"count":1857,
		"byteOffset":12,
		"min":[-0.9999952912330627,
		-0.9997872710227966,
		-0.9984293580055237]
	},
	{
		"bufferView":3,
		"max":[1.0,
		0.9887903928756714],
		"type":"VEC2",
		"componentType":5126,
		"count":1857,
		"byteOffset":24,
		"min":[0.0,
		0.0]
	},
	{
		"bufferView":4,
		"max":[204],
		"type":"SCALAR",
		"componentType":5123,
		"count":456,
		"byteOffset":0,
		"min":[0]
	},
	{
		"bufferView":5,
		"max":[72.12134552001953,
		63.00587463378906,
		0.75],
		"type":"VEC3",
		"componentType":5126,
		"count":205,
		"byteOffset":0,
		"min":[-141.5804443359375,
		-69.12020111083985,
		-4.75]
	},
	{
		"bufferView":5,
		"max":[1.0,
		0.7071409225463867,
		1.0],
		"type":"VEC3",
		"componentType":5126,
		"count":205,
		"byteOffset":12,
		"min":[-1.0,
		-0.7071277499198914,
		-1.0]
	},
	{
		"bufferView":5,
		"max":[0.9774314761161804,
		0.25202667713165285],
		"type":"VEC2",
		"componentType":5126,
		"count":205,
		"byteOffset":24,
		"min":[0.3794611692428589,
		0.005686415359377861]
	},
	{
		"bufferView":6,
		"max":[219],
		"type":"SCALAR",
		"componentType":5123,
		"count":456,
		"byteOffset":0,
		"min":[0]
	},
	{
		"bufferView":7,
		"max":[72.12134552001953,
		63.04813003540039,
		0.75],
		"type":"VEC3",
		"componentType":5126,
		"count":220,
		"byteOffset":0,
		"min":[-141.5804443359375,
		-69.12020111083985,
		-4.75]
	},
	{
		"bufferView":7,
		"max":[0.722383439540863,
		1.0,
		1.0],
		"type":"VEC3",
		"componentType":5126,
		"count":220,
		"byteOffset":12,
		"min":[-0.7193595767021179,
		-1.0,
		-1.0]
	},
	{
		"bufferView":7,
		"max":[0.36928167939186098,
		0.9967336654663086],
		"type":"VEC2",
		"componentType":5126,
		"count":220,
		"byteOffset":24,
		"min":[0.003266335232183337,
		0.0032663349993526937]
	}],
	"bufferViews":[{
		"buffer":0,
		"byteOffset":0,
		"byteLength":15060,
		"target":34963
	},
	{
		"buffer":0,
		"byteOffset":15060,
		"byteStride":32,
		"byteLength":56704,
		"target":34962
	},
	{
		"buffer":1,
		"byteOffset":0,
		"byteLength":14940,
		"target":34963
	},
	{
		"buffer":1,
		"byteOffset":14940,
		"byteStride":32,
		"byteLength":59424,
		"target":34962
	},
	{
		"buffer":2,
		"byteOffset":0,
		"byteLength":912,
		"target":34963
	},
	{
		"buffer":2,
		"byteOffset":912,
		"byteStride":32,
		"byteLength":6560,
		"target":34962
	},
	{
		"buffer":3,
		"byteOffset":0,
		"byteLength":912,
		"target":34963
	},
	{
		"buffer":3,
		"byteOffset":912,
		"byteStride":32,
		"byteLength":7040,
		"target":34962
	}],
	"buffers":[{
		"uri":"data:application/octet-stream;base64,",
		"byteLength":71764
	},
	{
		"uri":"data:application/octet-stream;base64,",
		"byteLength":74364
	},
	{
		"uri":"data:application/octet-stream;base64,",
		"byteLength":7472
	},
	{
		"uri":"data:application/octet-stream;base64,",
		"byteLength":7952
	}],
	"materials":[{
		"pbrMetallicRoughness":{
			"baseColorFactor":[0.8,
			0.8,
			0.8,
			1.0],
			"metallicFactor":1.0,
			"roughnessFactor":0.0
		},
		"emissiveFactor":[0.0,
		0.0,
		0.0],
		"alphaMode":"OPAQUE",
		"doubleSided":false,
		"name":"PBR"
	},
	{
		"pbrMetallicRoughness":{
			"baseColorFactor":[0.8,
			0.8,
			0.8,
			1.0],
			"metallicFactor":0.0,
			"roughnessFactor":0.5
		},
		"emissiveFactor":[0.0,
		0.0,
		0.0],
		"alphaMode":"OPAQUE",
		"doubleSided":false,
		"name":"Mat.1"
	}]
}